<svg xmlns="http://www.w3.org/2000/svg" fill="none" viewBox="0 0 1083 934">
  <g id="olla">
    <g id="novena" stroke="#000">
      <path d="m220.5 220.123-77.5-87c-58.498 56.839-83.702 94.524-116 171.5l16.5 5.5 3-5.5 18 5.5v9l74 19c22.801-51.758 40.481-77.763 82-118ZM40 314.623l-16-4.5c-15.231 41.741-20.368 66.01-23 111h4v54h18l.5-6.5H44v5.5h5v5h-5v7H22v-6H5v29.5l-4 1.5c9.437 58.885 21.76 90.796 51.5 146.5l10.5-5-2.5-6 21-15 3 6.5 14-9 2.5 2.5-15 9 3 6-19 13-5.5-3.5-10 7.5 15.5 21.5 97-75.5c-53.951-98.791-58.32-156.636-32.5-263l-74-24.5v3.5l-20.5-6.5v-4.5Z"/>
    </g>
    <path id="platea-visitante" stroke="#000" d="M209.5 657.123c-17.131-17.7-26.39-27.995-43-47l-96 76c40.966 57.973 68.407 86.458 131 125l57-116c-16.481-11.231-25.765-18.389-42.5-32.5l-19.5 23.5 8.5 7.5-13.5 17.5-4.5-5 9.5-14-10.5-7.5-11 12.5-5.5-5 13.5-16 8.5 6 18-25Z"/>
    <g id="platea" stroke="#000">
      <path id="platea-3" d="m637 779.123-4-27.5c69.914-16.911 106.354-31.275 167-65l43.5 60-6 4.5 33.5 48-43 23.5-11-26-11.5-3.5-9.5-22-8 4 9.5 22.5-8 10 14.5 27.5c-54.477 25.223-86.683 35.962-147 49.5l-12.5-65 16.5-5.5-11-37.5-13 2.5Z"/>
      <path id="platea-2" d="m438 785.123 2-28c72.409 8.184 113.025 6.97 185.5-4l3.5 27.5-13 4.5 4 39 15-2 12 65c-90.636 16.327-139.938 16.975-225.5 4.5l8-63 20 2.5v-43l-11.5-3Z"/>
      <path id="platea-1" d="M319.5 867.994c26.901 8.705 56.112 15.427 92.5 22.129l7-63.5-10.5-2 5.5-40.5h16l2.5-28.5c-70.569-12.94-107.899-26.708-171.5-60h-1.5l-56.5 116.5c33.365 20.331 61.044 34.849 89.5 46.16m27 9.711 11-34.871-9-3.5 9-23-9-3-8.5 23-6.5-2-14 33.66m27 9.711a437.305 437.305 0 0 1-27-9.711"/>
    </g>
    <path id="norte" stroke="#000" d="m844.5 747.123-5 4 61.5 88c55.069-52.879 81.492-86.258 121.5-152l-28.5-21-4.5 10-25-13.5 12.5-29.5 24.5 12.5-3.5 12.5 29.5 18c39.66-78.355 50.32-123.726 54.5-206.5l-40-5v12h-26.5v-32h26.5v13.5h40c-3.47-82.796-13.66-128.512-50-208.5l-30.5 15 4.5 10.5-23 9.5-3.5-9.5-11.5 4.5-5-11 12-4-7-8 23.5-11.5 5.5 11.5 30.5-15c-31.698-56.078-52.651-85.576-96-134.5l-25 28-29-22-63.5 112c41.023 38.575 60.137 64.938 81.5 127.5l52.5-15 4 8.5-53.5 14c18.26 78.574 10.913 119.878-2.5 193.5l52 22v9.5l-52-23c-16.863 41.574-29.858 63.501-58.5 100.5l44 50-37 34.5Z"/>
    <g id="prefe-lateral-norte">
      <path id="Vector" stroke="#000" d="m718.5 84.123-15.5 58.5c-14.239-5.242-23.056-7.992-40.5-12.5l12.5-58c17.049 3.98 26.387 6.453 42 12m167 14.5-57 101-35.5-20 49-104.5c17.557 7.515 27.05 12.735 43.5 23.5Zm-49.5-27-21 49.5c-19.605-13.973-31.362-20.641-54-30l6-16.5-6-3 10-27.5c26.002 8.986 40.28 14.879 65 27.5Zm-23 53.5-23.5 53-55.5-25 20-57c24.724 8.946 37.666 15.236 59 29Zm-63-31-20.5 57-22.5-8 17.5-58.5 25.5 9.5Zm-11-60.5 27.5 9-8.5 28.5-5-1.5-5 15-22-7 13-44Zm-69.5 38.5-10.5 58-65-13.5 5.5-55 70 10.5Z"/>
    </g>
    <path id="espacio-conmebol" stroke="#000" d="m721.5 76.623 12-44c-17.71-5.726-28.152-8.509-48-12.5l-6.5-2c-29.036-5.359-45.346-8.073-74.5-12l-5 49c26.686 1.618 41.309 3.236 66.5 8l15.5 3c16.024 3.92 25.294 6.154 40 10.5Z"/>
    <g id="prefe-benefactor" stroke="#000">
      <path id="Vector 14" d="m593.5 54.623 4-48.5c-13.505-2.13-22.292-3.127-40.5-4.5l-1.5 51c16.101.415 24.418.854 38 2Z"/>
      <path id="Vector 15" d="M552 52.623v-51c-28.903-.81-45.1-.851-74 0l4 53 25-2v-24.5h15v24.5h30Z"/>
      <path id="Vector 16" d="m477 55.623-4.5-52.5-40 3.5 7 52.5 37.5-3.5Z"/>
    </g>
    <g id="prefe-vip" stroke="#000">
      <path id="Vector 17" d="m516.5 61.623-34 1 4 51.5h32m-2-52.5 34-1v53.5h-32m-2-52.5 2 52.5"/>
      <path id="Vector 18" d="m483 114.623-6-52-35.5 4 8 52 33.5-4Z"/>
      <path id="Vector 20" d="m554 113.623 1-52.5 37.5 1.5-5 53.5-33.5-2.5Z"/>
    </g>
    <g id="prefe-lateral-novena">
      <g id="Vector_2" stroke="#000">
        <path d="m436 60.123-8.5-52c-13.308 1.488-20.526 2.483-33 4.5l4.5 27h7l4.5 23.5 25.5-3ZM394.5 39.623l-5-27c-35.153 5.214-54.792 9.894-87 21l21 51.5c29.86-8.826 45.313-12.925 71-19l-5-25 5-1.5ZM446 119.123l-9-52-33 4.5 11 54 31-6.5ZM411 125.623l-11.5-54-74 19 18.5 53.5 67-18.5ZM317 93.623l20 53-38 15-24.5-53 42.5-15ZM315 87.123l-19.5-51c-18.706 3.024-28.398 6.546-44.5 15.5l23.5 51 40.5-15.5ZM267 102.623l-21-51-66.5 29 30 51.5 57.5-29.5ZM294.5 162.623l-24.5-50c-23.737 8.26-36.037 14.086-56 26.5l27.5 49 53-25.5ZM237.5 188.123l-49.5-82.5-36.5 26.5 7 12v2.5l55.5 61c8.737-6.714 13.764-10.748 23.5-19.5Z"/>
      </g>
    </g>
  </g>
</svg>